<?xml version="1.0" encoding="utf-8"?>
<!-- Generator: Adobe Illustrator 27.7.0, SVG Export Plug-In . SVG Version: 6.00 Build 0)  -->
<svg version="1.1" id="Livello_1" xmlns="http://www.w3.org/2000/svg" xmlns:xlink="http://www.w3.org/1999/xlink" x="0px" y="0px"
	 viewBox="0 0 496.7 107.3" style="enable-background:new 0 0 496.7 107.3;" xml:space="preserve">
<style type="text/css">
	.st0{fill:#040305;}
	.st1{fill:#35BADB;}
	.st2{fill:#FFCD02;}
	.st3{fill:#1C313A;}
	.st4{fill:#7C7C7B;}
</style>
<g>
	<path class="st0" d="M70.9,24.9c0.8-0.8,1.7-1.4,2.7-1.7c1-0.4,2-0.6,3-0.6c1.3,0,2.5,0.3,3.6,0.8c1.1,0.5,2.1,1.3,2.9,2.3
		s1.2,2.2,1.3,3.6v0.4h-16c0.1-0.6,0.3-1.2,0.5-1.8C69.5,26.7,70.2,25.7,70.9,24.9 M88.3,32.7c0.4-0.4,0.6-0.8,0.6-1.4
		c0-1.9-0.4-3.7-1.1-5.2s-1.6-2.9-2.7-4c-1.1-1.1-2.4-2-3.9-2.5s-3-0.9-4.6-0.9c-2.1,0-4.1,0.5-6,1.7s-3.4,2.7-4.6,4.8
		c-1.2,2.1-1.8,4.6-1.8,7.6c0,2.7,0.6,5,1.7,7c1.1,2,2.7,3.6,4.8,4.8s4.4,1.7,7.2,1.7c1.8,0,3.6-0.4,5.2-1.2
		c1.6-0.8,2.9-1.7,3.9-2.8c0.5-0.5,0.8-1,0.8-1.6c0-0.5-0.2-0.9-0.5-1.2c-0.3-0.3-0.8-0.5-1.2-0.5c-0.4,0-0.9,0.2-1.3,0.5
		c-0.4,0.5-1,1-1.6,1.4s-1.4,0.8-2.3,1.2c-0.9,0.3-1.9,0.5-3.1,0.5c-1.9,0-3.6-0.4-5-1.3s-2.6-2-3.3-3.5c-0.7-1.3-1.1-2.8-1.2-4.4
		h18.6C87.4,33.3,87.9,33.1,88.3,32.7"/>
	<path class="st0" d="M116,32.6c0-2-0.4-3.7-1.2-5.2c-0.8-1.5-1.9-2.7-3.3-3.5c-1.4-0.9-2.9-1.3-4.6-1.3c-1.7,0-3.3,0.4-4.7,1.3
		c-1.4,0.9-2.5,2-3.3,3.5c-0.8,1.5-1.2,3.2-1.2,5.2c0,1.9,0.4,3.7,1.2,5.2s1.9,2.7,3.3,3.5c1.4,0.9,2.9,1.3,4.7,1.3
		c1.7,0,3.2-0.4,4.6-1.3c1.4-0.9,2.5-2,3.3-3.5S116,34.5,116,32.6 M120.1,32.6c0,2.7-0.6,5-1.8,7.1c-1.2,2.1-2.8,3.7-4.8,4.9
		c-2,1.2-4.2,1.8-6.7,1.8s-4.7-0.6-6.7-1.8c-2-1.2-3.6-2.8-4.8-4.9c-1.2-2.1-1.8-4.4-1.8-7.1s0.6-5,1.8-7.1c1.2-2.1,2.8-3.7,4.8-4.9
		c2-1.2,4.3-1.8,6.7-1.8c2.5,0,4.7,0.6,6.7,1.8s3.6,2.8,4.8,4.9C119.5,27.5,120.1,29.9,120.1,32.6"/>
	<path class="st0" d="M124.7,41.7c-0.3-0.4-0.4-0.9-0.4-1.4c0-0.5,0.3-0.9,0.8-1.3c0.4-0.2,0.8-0.3,1.2-0.3s0.9,0.3,1.2,0.7
		c1,1.1,2,2,3.3,2.7s2.7,1,4.5,1c0.8,0,1.6-0.2,2.4-0.4c0.8-0.2,1.5-0.7,2.1-1.2c0.6-0.6,0.8-1.4,0.8-2.4c0-1-0.3-1.7-0.9-2.3
		s-1.3-1-2.3-1.4c-0.9-0.4-1.9-0.7-3-1c-1.1-0.3-2.2-0.7-3.3-1c-1.1-0.4-2.1-0.9-2.9-1.5c-0.9-0.6-1.6-1.3-2.1-2.2
		c-0.5-0.9-0.8-2-0.8-3.4c0-1.5,0.4-2.9,1.2-4c0.8-1.1,2-2,3.3-2.6s2.9-0.9,4.6-0.9c0.9,0,1.9,0.1,3,0.3c1,0.2,2.1,0.6,3,1.1
		c1,0.5,1.9,1.2,2.6,2.2c0.3,0.3,0.5,0.8,0.5,1.3s-0.2,1-0.7,1.4c-0.4,0.3-0.8,0.4-1.2,0.4s-0.8-0.2-1.1-0.5c-0.8-0.9-1.7-1.6-2.7-2
		c-1.1-0.5-2.3-0.7-3.6-0.7c-0.8,0-1.6,0.1-2.4,0.4c-0.8,0.3-1.4,0.7-2,1.2s-0.8,1.3-0.8,2.3c0,0.9,0.3,1.7,0.9,2.2s1.4,1,2.4,1.4
		s2.1,0.7,3.3,1c1.1,0.3,2.1,0.6,3.1,1c1,0.4,1.9,0.8,2.7,1.4c0.8,0.6,1.5,1.3,1.9,2.2s0.7,2,0.7,3.4c0,1.6-0.4,2.9-1.3,4.1
		c-0.9,1.1-2.1,2-3.5,2.6c-1.4,0.6-3,0.9-4.7,0.9c-1.9,0-3.7-0.3-5.6-1C127.6,44.6,126,43.4,124.7,41.7"/>
	<path class="st0" d="M162.2,18.8c1.8,0,3.4,0.2,4.8,0.6c1.4,0.4,2.5,0.9,3.3,1.5c0.8,0.6,1.2,1.4,1.2,2.2c0,0.5-0.1,0.9-0.5,1.3
		c-0.3,0.4-0.7,0.6-1.3,0.6c-0.4,0-0.8-0.1-1.1-0.3c-0.3-0.2-0.6-0.4-0.8-0.7c-0.3-0.3-0.6-0.5-1.1-0.7c-0.4-0.2-1-0.4-1.8-0.5
		c-0.8-0.1-1.6-0.2-2.4-0.2c-1.9,0-3.5,0.4-4.9,1.3c-1.4,0.9-2.5,2.1-3.4,3.6s-1.2,3.2-1.2,5.1s0.4,3.6,1.2,5.1s1.9,2.7,3.3,3.6
		c1.4,0.9,3,1.3,4.9,1.3c1.2,0,2.1-0.1,2.8-0.3c0.7-0.2,1.3-0.4,1.8-0.7c0.6-0.3,1-0.7,1.4-1s0.8-0.5,1.4-0.5s1,0.2,1.4,0.6
		c0.3,0.4,0.5,0.8,0.5,1.4c0,0.7-0.4,1.3-1.3,2s-2,1.2-3.5,1.7c-1.5,0.5-3.1,0.7-4.9,0.7c-2.6,0-4.9-0.6-6.8-1.8
		c-1.9-1.2-3.4-2.9-4.5-5s-1.6-4.4-1.6-7c0-2.6,0.6-4.9,1.7-7s2.6-3.7,4.6-5C157.3,19.4,159.6,18.8,162.2,18.8"/>
	<path class="st1" d="M27,21c-2.2-1.5-4.8-2.2-7.5-2.2c-2.7,0-5.3,0.8-7.5,2.2c-0.5,0.3-0.8,0.8-0.8,1.3c-0.1,0.6,0.1,1.1,0.5,1.5
		l0.8,0.8c0.4,0.4,0.8,0.5,1.3,0.5c0.3,0,0.6-0.1,0.9-0.3c1.4-0.9,3.1-1.4,4.8-1.4s3.3,0.5,4.8,1.4c0.7,0.4,1.6,0.3,2.2-0.3l0.8-0.8
		c0.4-0.4,0.6-0.9,0.5-1.5C27.7,21.8,27.4,21.3,27,21"/>
	<path class="st2" d="M17.4,41.6c-4.2-1-7.1-4.7-7.1-9c0-1.7,0.5-3.4,1.4-4.8c0.4-0.7,0.3-1.6-0.3-2.1l-0.8-0.8
		c-0.4-0.4-0.9-0.6-1.4-0.5c-0.5,0.1-1,0.3-1.3,0.8c-1.4,2.2-2.2,4.8-2.2,7.4c0,6.4,4.6,12.1,10.9,13.5c0.1,0,0.2,0,0.4,0
		c0.4,0,0.8-0.1,1.1-0.4c0.4-0.3,0.7-0.8,0.7-1.4v-1C18.7,42.5,18.1,41.8,17.4,41.6"/>
	<path class="st1" d="M42.5,18.8c-7.6,0-13.8,6.2-13.8,13.8l0,0.1l0,0.1c-0.1,4.3-3.2,8.1-7.4,8.9c-0.6,0.1-1,0.6-1,1.2V45
		c0,0.4,0.2,0.7,0.4,1c0.3,0.2,0.6,0.3,1,0.3c6.7-1.1,11.5-6.8,11.5-13.6c0-5.1,4.1-9.2,9.2-9.2s9.2,4.1,9.2,9.2s-4.1,9.2-9.2,9.2
		c-1.2,0-2.3,1-2.3,2.3c0,1.2,1,2.3,2.3,2.3c7.6,0,13.8-6.2,13.8-13.8C56.2,25,50.1,18.8,42.5,18.8"/>
	<polygon class="st0" points="188.2,60.1 188.8,60.1 188.8,5 188.2,5 	"/>
	<path class="st3" d="M415,21h-11.7v-8.7h13.5V9.3h-17v27.1h17.2v-2.9h-13.6v-9.6H415L415,21L415,21z M442.1,22c0-2.6-0.5-5-1.3-6.9
		c-0.9-2-2.2-3.5-3.8-4.6c-1.7-1.1-3.6-1.6-5.7-1.6c-2.1,0-4,0.5-5.7,1.6s-2.9,2.6-3.8,4.6c-0.9,2-1.4,4.3-1.4,6.9v2
		c0,2.6,0.5,4.8,1.4,6.8s2.2,3.4,3.8,4.5s3.5,1.6,5.7,1.6c2.2,0,4.1-0.5,5.7-1.6c1.6-1,2.9-2.5,3.8-4.5c0.9-2,1.3-4.3,1.3-6.9V22
		L442.1,22z M438.6,24c0,3.1-0.7,5.5-2,7.2s-3,2.5-5.4,2.5c-2.3,0-4.1-0.9-5.4-2.7s-2-4.2-2-7.3v-2c0-3,0.7-5.4,2-7.2
		s3.1-2.6,5.3-2.6c2.3,0,4.1,0.9,5.4,2.6s1.9,4.2,1.9,7.4V24L438.6,24z M460.5,26.5c0.9,0.7,1.4,1.8,1.4,3.1s-0.5,2.4-1.5,3.2
		s-2.5,1.2-4.3,1.2c-2,0-3.6-0.5-4.9-1.4c-1.2-1-1.8-2.2-1.8-3.9h-3.6c0,1.6,0.4,3,1.3,4.2c0.9,1.2,2.1,2.2,3.7,2.9
		c1.6,0.7,3.4,1.1,5.2,1.1c2.9,0,5.2-0.7,6.9-2s2.6-3.1,2.6-5.3c0-1.4-0.3-2.6-0.9-3.6c-0.6-1-1.6-1.9-2.8-2.7s-3-1.5-5.3-2.1
		c-2.2-0.6-3.9-1.3-4.8-2.1c-0.9-0.8-1.4-1.7-1.4-2.8c0-1.4,0.5-2.5,1.5-3.2c1-0.8,2.4-1.2,4.1-1.2c1.9,0,3.4,0.5,4.4,1.4
		s1.6,2.2,1.6,3.9h3.6c0-1.5-0.4-2.9-1.2-4.1c-0.8-1.3-1.9-2.3-3.4-3c-1.5-0.7-3.1-1.1-5-1.1c-2.7,0-5,0.7-6.6,2.1
		c-1.7,1.4-2.6,3.2-2.6,5.3c0,1.9,0.7,3.5,2.1,4.8c1.4,1.3,3.6,2.4,6.7,3.2C457.9,25,459.6,25.7,460.5,26.5L460.5,26.5z M486.5,27.8
		c-0.4,2.2-1,3.8-2.1,4.7s-2.6,1.3-4.6,1.3c-2.2,0-3.9-0.9-5.2-2.6c-1.2-1.7-1.8-4.1-1.8-7v-2.6c0-3.1,0.6-5.5,1.9-7.2
		c1.3-1.7,3.1-2.5,5.4-2.5c1.9,0,3.3,0.5,4.4,1.5s1.7,2.5,2,4.7h3.6c-0.3-2.8-1.3-5.1-3-6.7c-1.7-1.6-4-2.4-6.9-2.4
		c-2.2,0-4.1,0.5-5.7,1.5c-1.6,1-2.9,2.5-3.8,4.4s-1.4,4.1-1.4,6.6v2.6c0,3.9,1,6.9,2.9,9.2c1.9,2.3,4.5,3.4,7.7,3.4
		c3,0,5.3-0.8,7.1-2.3s2.8-3.8,3.2-6.6L486.5,27.8L486.5,27.8z"/>
	<path class="st2" d="M391.9,9.3h-3.7l-12.1,18.8v2h12.3v6.3h3.5v-6.3h3.8v-2.8h-3.8L391.9,9.3L391.9,9.3z M388,14.8l0.4-0.7v13.3
		H380L388,14.8L388,14.8z"/>
	<path class="st1" d="M298.4,27.8c-0.4,2.2-1,3.8-2.1,4.7s-2.6,1.3-4.6,1.3c-2.2,0-3.9-0.9-5.2-2.6c-1.2-1.7-1.8-4.1-1.8-7v-2.6
		c0-3.1,0.6-5.5,2-7.2c1.3-1.7,3.1-2.5,5.4-2.5c1.9,0,3.3,0.5,4.4,1.5s1.7,2.5,2,4.7h3.6c-0.3-2.8-1.3-5.1-3-6.7
		c-1.7-1.6-4-2.4-6.9-2.4c-2.2,0-4.1,0.5-5.7,1.5c-1.6,1-2.9,2.5-3.8,4.4c-0.9,1.9-1.4,4.1-1.4,6.6v2.6c0,3.9,1,6.9,2.9,9.2
		c1.9,2.3,4.5,3.4,7.7,3.4c3,0,5.3-0.8,7.1-2.3s2.8-3.8,3.2-6.6L298.4,27.8L298.4,27.8z M327.7,22c0-2.6-0.5-5-1.3-6.9
		c-0.9-2-2.2-3.5-3.8-4.6c-1.7-1.1-3.6-1.6-5.7-1.6c-2.1,0-4,0.5-5.7,1.6s-2.9,2.6-3.8,4.6c-0.9,2-1.4,4.3-1.4,6.9v2
		c0,2.6,0.5,4.8,1.4,6.8s2.2,3.4,3.8,4.5s3.5,1.6,5.7,1.6c2.2,0,4.1-0.5,5.7-1.6s2.9-2.5,3.8-4.5c0.9-2,1.3-4.3,1.3-6.9V22L327.7,22
		z M324.2,24c0,3.1-0.7,5.5-2,7.2c-1.3,1.7-3,2.5-5.4,2.5c-2.3,0-4.1-0.9-5.4-2.7s-2-4.2-2-7.3v-2c0-3,0.7-5.4,2-7.2
		s3.1-2.6,5.3-2.6c2.3,0,4.1,0.9,5.4,2.6s1.9,4.2,1.9,7.4L324.2,24L324.2,24z M348.9,36.4h3.8v-0.2l-6.4-11.5
		c1.6-0.6,2.9-1.6,3.8-2.8c0.9-1.2,1.4-2.7,1.4-4.4c0-2.7-0.8-4.7-2.5-6.1s-4-2.1-7-2.1h-9v27.1h3.6v-11h6.4L348.9,36.4L348.9,36.4z
		 M336.7,12.2h5.5c1.9,0,3.3,0.5,4.3,1.4c1,0.9,1.5,2.2,1.5,3.9c0,1.5-0.5,2.8-1.6,3.7c-1,0.9-2.5,1.4-4.2,1.4h-5.5L336.7,12.2
		L336.7,12.2z M371.9,21h-11.7v-8.7h13.5V9.3h-17v27.1h17.2v-2.9h-13.6v-9.6h11.7L371.9,21L371.9,21z"/>
	<path class="st3" d="M220.4,21.5h-11.4v-9.3h13.2V9.3h-16.8v27.1h3.6v-12h11.4L220.4,21.5L220.4,21.5z M240.9,36.4h3.7L234.2,9.3
		h-3.1l-10.4,27.1h3.7l2.6-7.1h11.4L240.9,36.4L240.9,36.4z M232.7,13.7l4.6,12.7h-9.2L232.7,13.7L232.7,13.7z M252.1,9.3h-3.6v27.1
		h3.6V9.3L252.1,9.3z M274.4,36.4h3.8v-0.2l-6.4-11.5c1.6-0.6,2.9-1.6,3.8-2.8s1.4-2.7,1.4-4.4c0-2.7-0.8-4.7-2.5-6.1
		c-1.6-1.4-4-2.1-7-2.1h-9v27.1h3.6v-11h6.4L274.4,36.4L274.4,36.4z M262.2,12.2h5.5c1.9,0,3.3,0.5,4.3,1.4c1,0.9,1.5,2.2,1.5,3.9
		c0,1.5-0.5,2.8-1.6,3.7c-1,0.9-2.5,1.4-4.2,1.4h-5.5L262.2,12.2L262.2,12.2z"/>
	<path class="st4" d="M210.4,50.3c-0.1,0.7-0.3,1.2-0.6,1.4c-0.3,0.3-0.8,0.4-1.4,0.4c-0.7,0-1.2-0.3-1.6-0.8
		c-0.4-0.5-0.6-1.2-0.6-2.1v-0.8c0-1,0.2-1.7,0.6-2.2s0.9-0.8,1.6-0.8c0.6,0,1,0.2,1.3,0.4c0.3,0.3,0.5,0.8,0.6,1.4h1.1
		c-0.1-0.9-0.4-1.5-0.9-2c-0.5-0.5-1.2-0.7-2.1-0.7c-0.7,0-1.2,0.2-1.7,0.5s-0.9,0.8-1.2,1.3s-0.4,1.2-0.4,2v0.8
		c0,1.2,0.3,2.1,0.9,2.8c0.6,0.7,1.4,1,2.3,1c0.9,0,1.6-0.2,2.2-0.7c0.5-0.5,0.9-1.1,1-2L210.4,50.3L210.4,50.3z M212.6,49.9
		c0,1,0.3,1.7,0.8,2.3c0.5,0.6,1.2,0.9,2,0.9c0.6,0,1-0.1,1.5-0.4c0.4-0.3,0.8-0.6,1-1.1c0.2-0.5,0.3-1,0.3-1.6v-0.1
		c0-1-0.3-1.7-0.8-2.3c-0.5-0.6-1.2-0.9-2-0.9c-0.5,0-1,0.1-1.4,0.4s-0.8,0.6-1,1.1C212.7,48.7,212.6,49.2,212.6,49.9L212.6,49.9
		L212.6,49.9z M214.1,48.2c0.3-0.4,0.7-0.6,1.2-0.6c0.5,0,0.9,0.2,1.3,0.6c0.3,0.4,0.5,1,0.5,1.6c0,0.8-0.2,1.3-0.5,1.8
		s-0.7,0.6-1.3,0.6c-0.5,0-0.9-0.2-1.3-0.6s-0.5-1-0.5-1.6C213.6,49.2,213.8,48.6,214.1,48.2L214.1,48.2z M222.4,46.8
		c-0.1,0-0.3-0.1-0.5-0.1c-0.6,0-1.1,0.3-1.5,0.8l0-0.7h-1V53h1v-4.3c0.2-0.6,0.7-0.9,1.4-0.9c0.2,0,0.4,0,0.5,0L222.4,46.8
		L222.4,46.8z M228.1,51.9l-0.6-0.5c-0.2,0.2-0.4,0.5-0.7,0.6c-0.3,0.2-0.6,0.2-0.9,0.2c-0.5,0-0.9-0.2-1.3-0.6
		c-0.3-0.4-0.5-0.9-0.5-1.5h4.1v-0.4c0-1-0.2-1.7-0.7-2.2s-1.1-0.8-1.9-0.8c-0.5,0-0.9,0.1-1.4,0.4c-0.4,0.3-0.7,0.6-1,1.1
		s-0.4,1-0.4,1.6v0.2c0,0.9,0.3,1.6,0.8,2.2s1.2,0.8,2,0.8C226.8,53.1,227.6,52.7,228.1,51.9L228.1,51.9L228.1,51.9z M226.7,48
		c0.3,0.3,0.4,0.7,0.4,1.2v0.1h-3.1c0.1-0.5,0.2-1,0.5-1.3s0.6-0.5,1.1-0.5C226.1,47.6,226.4,47.7,226.7,48L226.7,48z M237.4,50.3
		c-0.1,0.7-0.3,1.2-0.6,1.4c-0.3,0.3-0.8,0.4-1.4,0.4c-0.7,0-1.2-0.3-1.6-0.8c-0.4-0.5-0.6-1.2-0.6-2.1v-0.8c0-1,0.2-1.7,0.6-2.2
		s0.9-0.8,1.6-0.8c0.6,0,1,0.2,1.3,0.4c0.3,0.3,0.5,0.8,0.6,1.4h1.1c-0.1-0.9-0.4-1.5-0.9-2c-0.5-0.5-1.2-0.7-2.1-0.7
		c-0.7,0-1.2,0.2-1.7,0.5s-0.9,0.8-1.2,1.3s-0.4,1.2-0.4,2v0.8c0,1.2,0.3,2.1,0.9,2.8c0.6,0.7,1.4,1,2.3,1c0.9,0,1.6-0.2,2.2-0.7
		c0.5-0.5,0.9-1.1,1-2L237.4,50.3L237.4,50.3z M239.5,49.9c0,1,0.3,1.7,0.8,2.3c0.5,0.6,1.2,0.9,2,0.9c0.6,0,1-0.1,1.5-0.4
		c0.4-0.3,0.8-0.6,1-1.1c0.2-0.5,0.3-1,0.3-1.6v-0.1c0-1-0.3-1.7-0.8-2.3c-0.5-0.6-1.2-0.9-2-0.9c-0.5,0-1,0.1-1.4,0.4
		s-0.8,0.6-1,1.1S239.5,49.2,239.5,49.9L239.5,49.9L239.5,49.9z M241,48.2c0.3-0.4,0.7-0.6,1.2-0.6c0.5,0,0.9,0.2,1.3,0.6
		c0.3,0.4,0.5,1,0.5,1.6c0,0.8-0.2,1.3-0.5,1.8s-0.7,0.6-1.3,0.6c-0.5,0-0.9-0.2-1.3-0.6c-0.3-0.4-0.5-1-0.5-1.6
		C240.6,49.2,240.7,48.6,241,48.2L241,48.2z M246.4,46.8V53h1.1v-4.5c0.2-0.6,0.7-0.9,1.4-0.9c0.9,0,1.3,0.4,1.3,1.3v4h1.1v-4
		c0-0.4,0.2-0.7,0.4-0.9c0.3-0.2,0.6-0.3,1-0.3c0.5,0,0.8,0.1,1,0.3c0.2,0.2,0.3,0.5,0.3,1v4h1.1v-4.1c0-1.4-0.7-2.1-2.1-2.1
		c-0.4,0-0.8,0.1-1.2,0.3s-0.6,0.4-0.8,0.7c-0.3-0.7-0.9-1-1.8-1c-0.8,0-1.4,0.3-1.8,0.8l0-0.7L246.4,46.8L246.4,46.8z M261.7,49.9
		c0-1-0.2-1.8-0.6-2.3c-0.4-0.5-1-0.8-1.7-0.8c-0.8,0-1.4,0.3-1.8,0.8l0-0.7h-1v8.5h1v-2.9c0.4,0.5,1,0.7,1.8,0.7
		c0.7,0,1.3-0.3,1.7-0.8c0.4-0.6,0.6-1.3,0.6-2.2L261.7,49.9L261.7,49.9z M260.2,51.6c-0.3,0.4-0.7,0.6-1.2,0.6
		c-0.6,0-1.1-0.3-1.4-0.8v-2.9c0.3-0.6,0.8-0.8,1.4-0.8c0.5,0,0.9,0.2,1.2,0.6c0.3,0.4,0.4,0.9,0.4,1.6
		C260.7,50.6,260.5,51.2,260.2,51.6L260.2,51.6z M262.8,49.9c0,1,0.3,1.7,0.8,2.3c0.5,0.6,1.2,0.9,2,0.9c0.5,0,1-0.1,1.5-0.4
		c0.4-0.3,0.8-0.6,1-1.1c0.2-0.5,0.3-1,0.3-1.6v-0.1c0-1-0.3-1.7-0.8-2.3c-0.5-0.6-1.2-0.9-2-0.9c-0.5,0-1,0.1-1.4,0.4
		s-0.8,0.6-1,1.1C262.9,48.7,262.8,49.2,262.8,49.9L262.8,49.9L262.8,49.9z M264.3,48.2c0.3-0.4,0.7-0.6,1.2-0.6
		c0.5,0,1,0.2,1.3,0.6c0.3,0.4,0.5,1,0.5,1.6c0,0.8-0.2,1.3-0.5,1.8s-0.7,0.6-1.3,0.6c-0.5,0-1-0.2-1.3-0.6c-0.3-0.4-0.5-1-0.5-1.6
		C263.8,49.2,264,48.6,264.3,48.2L264.3,48.2z M269.6,46.8V53h1v-4.4c0.1-0.3,0.3-0.5,0.6-0.7s0.5-0.3,0.9-0.3
		c0.4,0,0.7,0.1,0.9,0.3c0.2,0.2,0.3,0.5,0.3,1v4h1v-4c0-1.5-0.7-2.2-2-2.2c-0.8,0-1.4,0.3-1.8,0.9l0-0.8L269.6,46.8L269.6,46.8z
		 M280.9,51.9l-0.6-0.5c-0.2,0.2-0.4,0.5-0.7,0.6c-0.3,0.2-0.6,0.2-0.9,0.2c-0.5,0-1-0.2-1.3-0.6c-0.3-0.4-0.5-0.9-0.5-1.5h4.1v-0.4
		c0-1-0.2-1.7-0.7-2.2s-1.1-0.8-1.9-0.8c-0.5,0-0.9,0.1-1.4,0.4c-0.4,0.3-0.7,0.6-1,1.1s-0.4,1-0.4,1.6v0.2c0,0.9,0.3,1.6,0.8,2.2
		s1.2,0.8,2,0.8C279.6,53.1,280.4,52.7,280.9,51.9L280.9,51.9L280.9,51.9z M279.5,48c0.3,0.3,0.4,0.7,0.4,1.2v0.1h-3.1
		c0.1-0.5,0.2-1,0.5-1.3s0.6-0.5,1.1-0.5C278.9,47.6,279.2,47.7,279.5,48L279.5,48z M282.1,46.8V53h1v-4.4c0.1-0.3,0.3-0.5,0.6-0.7
		s0.5-0.3,0.9-0.3c0.4,0,0.7,0.1,0.9,0.3c0.2,0.2,0.3,0.5,0.3,1v4h1v-4c0-1.5-0.7-2.2-2-2.2c-0.8,0-1.4,0.3-1.8,0.9l0-0.8
		L282.1,46.8L282.1,46.8z M288.9,45.4v1.5h-1.1v0.8h1.1v3.8c0,0.5,0.1,0.9,0.4,1.2c0.2,0.3,0.6,0.4,1.1,0.4c0.3,0,0.5,0,0.8-0.1
		v-0.8c-0.2,0-0.4,0.1-0.5,0.1c-0.2,0-0.4-0.1-0.5-0.2c-0.1-0.1-0.1-0.3-0.1-0.5v-3.8h1.1v-0.8H290v-1.5H288.9L288.9,45.4z
		 M295.5,52c-0.2,0.2-0.6,0.2-1,0.2c-0.4,0-0.8-0.1-1-0.3c-0.3-0.2-0.4-0.5-0.4-0.8h-1c0,0.4,0.1,0.7,0.3,1c0.2,0.3,0.5,0.5,0.9,0.7
		c0.4,0.2,0.8,0.3,1.3,0.3c0.7,0,1.3-0.2,1.7-0.5c0.4-0.3,0.7-0.8,0.7-1.3c0-0.3-0.1-0.6-0.2-0.8c-0.2-0.2-0.4-0.4-0.7-0.6
		c-0.3-0.2-0.8-0.3-1.3-0.4s-0.9-0.2-1.1-0.4c-0.2-0.1-0.3-0.3-0.3-0.6c0-0.3,0.1-0.5,0.3-0.7c0.2-0.2,0.5-0.2,0.9-0.2
		c0.4,0,0.7,0.1,0.9,0.3c0.2,0.2,0.4,0.5,0.4,0.7h1c0-0.6-0.2-1-0.6-1.4c-0.4-0.4-1-0.5-1.7-0.5c-0.7,0-1.2,0.2-1.6,0.5
		c-0.4,0.3-0.6,0.8-0.6,1.3c0,0.3,0.1,0.6,0.2,0.8c0.1,0.2,0.4,0.4,0.7,0.6s0.7,0.3,1.3,0.4c0.5,0.1,0.9,0.2,1.1,0.4
		c0.2,0.2,0.3,0.4,0.3,0.7C295.9,51.6,295.8,51.8,295.5,52L295.5,52z M305.3,49.9c0.3,0.2,0.4,0.5,0.4,0.9c0,0.4-0.1,0.7-0.5,1
		c-0.3,0.2-0.7,0.3-1.3,0.3c-0.6,0-1.1-0.1-1.5-0.4s-0.5-0.7-0.5-1.2h-1.1c0,0.5,0.1,0.9,0.4,1.3c0.3,0.4,0.6,0.7,1.1,0.9
		s1,0.3,1.6,0.3c0.9,0,1.6-0.2,2.1-0.6c0.5-0.4,0.8-0.9,0.8-1.6c0-0.4-0.1-0.8-0.3-1.1s-0.5-0.6-0.9-0.8c-0.4-0.2-0.9-0.4-1.6-0.6
		c-0.7-0.2-1.2-0.4-1.5-0.6c-0.3-0.2-0.4-0.5-0.4-0.8c0-0.4,0.1-0.8,0.5-1c0.3-0.2,0.7-0.3,1.2-0.3c0.6,0,1,0.1,1.3,0.4
		s0.5,0.7,0.5,1.2h1.1c0-0.5-0.1-0.9-0.4-1.3c-0.2-0.4-0.6-0.7-1-0.9c-0.4-0.2-1-0.3-1.5-0.3c-0.8,0-1.5,0.2-2,0.6
		c-0.5,0.4-0.8,1-0.8,1.6c0,0.6,0.2,1,0.6,1.4c0.4,0.4,1.1,0.7,2,1C304.5,49.5,305,49.7,305.3,49.9L305.3,49.9z M311.8,53h1v-6.1h-1
		v4.5c-0.3,0.6-0.8,0.9-1.6,0.9c-0.8,0-1.1-0.5-1.1-1.4v-4H308v4c0,0.7,0.2,1.3,0.5,1.7s0.8,0.6,1.5,0.6c0.8,0,1.4-0.2,1.8-0.7
		L311.8,53L311.8,53z M319.6,49.9c0-1-0.2-1.8-0.6-2.3c-0.4-0.5-1-0.8-1.7-0.8c-0.8,0-1.4,0.3-1.8,0.8l0-0.7h-1v8.5h1v-2.9
		c0.4,0.5,1,0.7,1.8,0.7c0.7,0,1.3-0.3,1.7-0.8c0.4-0.6,0.6-1.3,0.6-2.2L319.6,49.9L319.6,49.9z M318.1,51.6
		c-0.3,0.4-0.7,0.6-1.2,0.6c-0.6,0-1.1-0.3-1.4-0.8v-2.9c0.3-0.6,0.8-0.8,1.4-0.8c0.5,0,0.9,0.2,1.2,0.6c0.3,0.4,0.4,0.9,0.4,1.6
		C318.5,50.6,318.4,51.2,318.1,51.6L318.1,51.6z M326.1,49.9c0-1-0.2-1.8-0.6-2.3c-0.4-0.5-1-0.8-1.7-0.8c-0.8,0-1.4,0.3-1.8,0.8
		l0-0.7h-1v8.5h1v-2.9c0.4,0.5,1,0.7,1.8,0.7c0.7,0,1.3-0.3,1.7-0.8c0.4-0.6,0.6-1.3,0.6-2.2L326.1,49.9L326.1,49.9z M324.6,51.6
		c-0.3,0.4-0.7,0.6-1.2,0.6c-0.6,0-1.1-0.3-1.4-0.8v-2.9c0.3-0.6,0.8-0.8,1.4-0.8c0.5,0,0.9,0.2,1.2,0.6c0.3,0.4,0.4,0.9,0.4,1.6
		C325,50.6,324.9,51.2,324.6,51.6L324.6,51.6z M327.1,49.9c0,1,0.3,1.7,0.8,2.3c0.5,0.6,1.2,0.9,2,0.9c0.5,0,1-0.1,1.5-0.4
		c0.4-0.3,0.8-0.6,1-1.1c0.2-0.5,0.3-1,0.3-1.6v-0.1c0-1-0.3-1.7-0.8-2.3c-0.5-0.6-1.2-0.9-2-0.9c-0.5,0-1,0.1-1.4,0.4
		s-0.8,0.6-1,1.1C327.2,48.7,327.1,49.2,327.1,49.9L327.1,49.9L327.1,49.9z M328.6,48.2c0.3-0.4,0.7-0.6,1.2-0.6
		c0.5,0,1,0.2,1.3,0.6c0.3,0.4,0.5,1,0.5,1.6c0,0.8-0.2,1.3-0.5,1.8s-0.7,0.6-1.3,0.6s-1-0.2-1.3-0.6c-0.3-0.4-0.5-1-0.5-1.6
		C328.2,49.2,328.3,48.6,328.6,48.2L328.6,48.2z M337,46.8c-0.1,0-0.3-0.1-0.5-0.1c-0.6,0-1.1,0.3-1.5,0.8l0-0.7h-1V53h1v-4.3
		c0.2-0.6,0.7-0.9,1.4-0.9c0.2,0,0.4,0,0.5,0L337,46.8L337,46.8z M338.6,45.4v1.5h-1.1v0.8h1.1v3.8c0,0.5,0.1,0.9,0.4,1.2
		c0.2,0.3,0.6,0.4,1.1,0.4c0.3,0,0.5,0,0.8-0.1v-0.8c-0.2,0-0.4,0.1-0.5,0.1c-0.2,0-0.4-0.1-0.5-0.2c-0.1-0.1-0.1-0.3-0.1-0.5v-3.8
		h1.1v-0.8h-1.1v-1.5H338.6L338.6,45.4z M343.1,46.8h-1V53h1V46.8L343.1,46.8z M342.1,45.6c0.1,0.1,0.3,0.2,0.5,0.2
		c0.2,0,0.4-0.1,0.5-0.2c0.1-0.1,0.2-0.2,0.2-0.4s0-0.3-0.2-0.4c-0.1-0.1-0.3-0.2-0.5-0.2c-0.2,0-0.4,0.1-0.5,0.2S342,45,342,45.2
		C342,45.4,342,45.5,342.1,45.6L342.1,45.6z M344.8,46.8V53h1v-4.4c0.1-0.3,0.3-0.5,0.6-0.7s0.5-0.3,0.9-0.3c0.4,0,0.7,0.1,0.9,0.3
		c0.2,0.2,0.3,0.5,0.3,1v4h1v-4c0-1.5-0.7-2.2-2-2.2c-0.8,0-1.4,0.3-1.8,0.9l0-0.8L344.8,46.8L344.8,46.8z M351.6,52.2
		c0.4,0.6,1,0.9,1.7,0.9s1.3-0.2,1.7-0.7v0.5c0,0.5-0.1,0.9-0.4,1.2c-0.3,0.3-0.7,0.4-1.2,0.4c-0.6,0-1.2-0.3-1.6-0.8l-0.5,0.6
		c0.2,0.3,0.5,0.6,1,0.8c0.4,0.2,0.9,0.3,1.3,0.3c0.8,0,1.4-0.2,1.9-0.7c0.5-0.5,0.7-1.1,0.7-1.9v-6h-1l0,0.7
		c-0.4-0.5-1-0.8-1.8-0.8c-0.7,0-1.3,0.3-1.8,0.8s-0.7,1.3-0.7,2.3C350.9,50.8,351.1,51.6,351.6,52.2L351.6,52.2z M352.4,48.2
		c0.3-0.4,0.7-0.6,1.2-0.6c0.6,0,1.1,0.3,1.4,0.9v2.8c-0.3,0.6-0.8,0.9-1.5,0.9c-0.5,0-0.9-0.2-1.2-0.6S352,50.7,352,50
		C352,49.2,352.1,48.6,352.4,48.2L352.4,48.2z M365.4,53L365.4,53c-0.1-0.4-0.2-0.9-0.2-1.4v-2.8c0-0.6-0.2-1.1-0.6-1.5
		c-0.4-0.3-1-0.5-1.7-0.5c-0.4,0-0.9,0.1-1.2,0.2s-0.7,0.4-0.9,0.7c-0.2,0.3-0.3,0.6-0.3,0.9h1c0-0.3,0.1-0.5,0.4-0.7
		c0.2-0.2,0.6-0.3,0.9-0.3c0.4,0,0.8,0.1,1,0.3c0.2,0.2,0.3,0.5,0.3,0.9v0.5h-1c-0.9,0-1.6,0.2-2,0.5s-0.7,0.8-0.7,1.5
		c0,0.5,0.2,1,0.6,1.3c0.4,0.3,0.9,0.5,1.5,0.5c0.7,0,1.2-0.2,1.7-0.8c0,0.3,0.1,0.5,0.1,0.6L365.4,53L365.4,53z M361.7,51.9
		c-0.2-0.2-0.3-0.4-0.3-0.8c0-0.8,0.6-1.1,1.9-1.1h0.8v1.2c-0.1,0.3-0.4,0.5-0.6,0.7s-0.6,0.2-0.9,0.2
		C362.2,52.2,362,52.1,361.7,51.9L361.7,51.9z M374.4,48.4h-3.5v-2.8h4v-0.9h-5.1V53h1.1v-3.6h3.5L374.4,48.4L374.4,48.4z M380.6,53
		h1.1l-3.1-8.2h-1l-3.1,8.2h1.1l0.8-2.2h3.5L380.6,53L380.6,53z M378.1,46.1l1.4,3.8h-2.8L378.1,46.1L378.1,46.1z M384,44.7h-1.1V53
		h1.1V44.7L384,44.7z M390.8,53h1.2v-0.1l-1.9-3.5c0.5-0.2,0.9-0.5,1.2-0.8c0.3-0.4,0.4-0.8,0.4-1.3c0-0.8-0.2-1.4-0.8-1.8
		c-0.5-0.4-1.2-0.6-2.1-0.6H386V53h1.1v-3.3h1.9L390.8,53L390.8,53z M387.1,45.6h1.7c0.6,0,1,0.1,1.3,0.4s0.5,0.7,0.5,1.2
		c0,0.5-0.2,0.8-0.5,1.1s-0.8,0.4-1.3,0.4h-1.7L387.1,45.6L387.1,45.6z M400.6,48.3h-3.6v-2.7h4.1v-0.9H396v8.2h5.2v-0.9h-4.1v-2.9
		h3.6L400.6,48.3L400.6,48.3z M408.9,48.6c0-0.8-0.1-1.5-0.4-2.1c-0.3-0.6-0.7-1.1-1.2-1.4c-0.5-0.3-1.1-0.5-1.7-0.5
		c-0.6,0-1.2,0.2-1.7,0.5c-0.5,0.3-0.9,0.8-1.2,1.4s-0.4,1.3-0.4,2.1v0.6c0,0.8,0.1,1.5,0.4,2s0.7,1,1.2,1.4s1.1,0.5,1.7,0.5
		c0.7,0,1.2-0.2,1.7-0.5c0.5-0.3,0.9-0.8,1.1-1.4c0.3-0.6,0.4-1.3,0.4-2.1L408.9,48.6L408.9,48.6z M407.8,49.2c0,1-0.2,1.7-0.6,2.2
		c-0.4,0.5-0.9,0.8-1.6,0.8s-1.2-0.3-1.6-0.8c-0.4-0.5-0.6-1.3-0.6-2.2v-0.6c0-0.9,0.2-1.7,0.6-2.2c0.4-0.5,0.9-0.8,1.6-0.8
		c0.7,0,1.2,0.3,1.6,0.8s0.6,1.3,0.6,2.2L407.8,49.2L407.8,49.2z M414.5,49.9c0.3,0.2,0.4,0.5,0.4,0.9c0,0.4-0.1,0.7-0.5,1
		c-0.3,0.2-0.7,0.3-1.3,0.3c-0.6,0-1.1-0.1-1.5-0.4c-0.4-0.3-0.5-0.7-0.5-1.2H410c0,0.5,0.1,0.9,0.4,1.3c0.3,0.4,0.6,0.7,1.1,0.9
		s1,0.3,1.6,0.3c0.9,0,1.6-0.2,2.1-0.6c0.5-0.4,0.8-0.9,0.8-1.6c0-0.4-0.1-0.8-0.3-1.1s-0.5-0.6-0.9-0.8c-0.4-0.2-0.9-0.4-1.6-0.6
		c-0.7-0.2-1.2-0.4-1.5-0.6c-0.3-0.2-0.4-0.5-0.4-0.8c0-0.4,0.1-0.8,0.5-1c0.3-0.2,0.7-0.3,1.2-0.3c0.6,0,1,0.1,1.3,0.4
		s0.5,0.7,0.5,1.2h1.1c0-0.5-0.1-0.9-0.4-1.3c-0.2-0.4-0.6-0.7-1-0.9c-0.4-0.2-1-0.3-1.5-0.3c-0.8,0-1.5,0.2-2,0.6
		c-0.5,0.4-0.8,1-0.8,1.6c0,0.6,0.2,1,0.6,1.4s1.1,0.7,2,1C413.7,49.5,414.2,49.7,414.5,49.9L414.5,49.9z M422.4,50.3
		c-0.1,0.7-0.3,1.2-0.6,1.4c-0.3,0.3-0.8,0.4-1.4,0.4c-0.7,0-1.2-0.3-1.6-0.8c-0.4-0.5-0.6-1.2-0.6-2.1v-0.8c0-1,0.2-1.7,0.6-2.2
		c0.4-0.5,0.9-0.8,1.6-0.8c0.6,0,1,0.2,1.3,0.4c0.3,0.3,0.5,0.8,0.6,1.4h1.1c-0.1-0.9-0.4-1.5-0.9-2c-0.5-0.5-1.2-0.7-2.1-0.7
		c-0.7,0-1.2,0.2-1.7,0.5s-0.9,0.8-1.2,1.3s-0.4,1.2-0.4,2v0.8c0,1.2,0.3,2.1,0.9,2.8s1.4,1,2.3,1c0.9,0,1.6-0.2,2.2-0.7
		c0.5-0.5,0.9-1.1,1-2L422.4,50.3L422.4,50.3z"/>
</g>
<g>
	<g>
		<path d="M23.4,76.5c0.5,0.3,0.9,0.7,1,1.3c0.1,0.6-0.1,1.1-0.5,1.6c-0.3,0.4-0.6,0.6-1,0.6s-0.9,0-1.3-0.3c-0.5-0.2-1-0.4-1.6-0.5
			c-0.6-0.1-1.1-0.2-1.7-0.2c-1.1,0-2.1,0.2-3,0.5s-1.6,0.9-2.3,1.5c-0.6,0.7-1.1,1.4-1.4,2.3c-0.3,0.9-0.5,1.9-0.5,3
			c0,1.3,0.2,2.4,0.5,3.3s0.9,1.7,1.5,2.3c0.6,0.6,1.4,1.1,2.3,1.4s1.8,0.5,2.8,0.5c0.6,0,1.1-0.1,1.7-0.2c0.6-0.1,1.1-0.3,1.6-0.6
			c0.4-0.2,0.9-0.3,1.3-0.2s0.8,0.3,1.1,0.7c0.4,0.5,0.6,1.1,0.5,1.6c-0.1,0.6-0.4,1-1,1.2c-0.5,0.3-1.1,0.5-1.7,0.7
			c-0.6,0.2-1.2,0.3-1.7,0.4c-0.6,0.1-1.2,0.1-1.8,0.1c-1.5,0-2.9-0.2-4.3-0.7c-1.3-0.5-2.5-1.2-3.6-2.1c-1.1-0.9-1.9-2.1-2.5-3.5
			c-0.6-1.4-0.9-3-0.9-4.9c0-1.6,0.3-3.1,0.8-4.4c0.6-1.4,1.3-2.5,2.3-3.5c1-1,2.2-1.8,3.6-2.3s2.9-0.8,4.5-0.8
			c0.9,0,1.8,0.1,2.7,0.3C21.8,75.8,22.6,76.1,23.4,76.5z"/>
		<path d="M44.6,89c0,1.7-0.4,3.2-1.1,4.5c-0.8,1.3-1.8,2.3-3.1,3.1s-2.7,1.1-4.3,1.1s-3-0.4-4.3-1.1c-1.3-0.7-2.3-1.7-3.1-3.1
			c-0.8-1.3-1.1-2.8-1.1-4.5s0.4-3.2,1.1-4.5c0.8-1.3,1.8-2.3,3.1-3.1c1.3-0.7,2.7-1.1,4.3-1.1s3,0.4,4.3,1.1
			c1.3,0.7,2.3,1.8,3.1,3.1C44.2,85.8,44.6,87.3,44.6,89z M40.8,89c0-1.1-0.2-2-0.6-2.8c-0.4-0.8-1-1.4-1.7-1.8
			c-0.7-0.4-1.5-0.7-2.4-0.7c-0.9,0-1.7,0.2-2.4,0.7c-0.7,0.4-1.3,1-1.7,1.8c-0.4,0.8-0.6,1.7-0.6,2.8c0,1,0.2,2,0.6,2.7
			c0.4,0.8,1,1.4,1.7,1.8c0.7,0.4,1.5,0.7,2.4,0.7c0.9,0,1.7-0.2,2.4-0.7s1.3-1,1.7-1.8C40.6,90.9,40.8,90,40.8,89z"/>
		<path d="M57.6,80.3c1.7,0,2.9,0.4,3.7,1.2c0.8,0.8,1.3,1.8,1.6,3.1l-0.5-0.3l0.3-0.5c0.3-0.5,0.6-1,1.2-1.5s1.2-1,1.9-1.4
			c0.7-0.4,1.6-0.6,2.5-0.6c1.5,0,2.6,0.3,3.4,1c0.8,0.6,1.3,1.5,1.6,2.6c0.3,1.1,0.4,2.3,0.4,3.6v8c0,0.5-0.2,1-0.5,1.4
			s-0.8,0.5-1.3,0.5c-0.5,0-1-0.2-1.3-0.5c-0.4-0.4-0.5-0.8-0.5-1.4v-8c0-0.7-0.1-1.3-0.3-1.9c-0.2-0.6-0.5-1-0.9-1.3
			c-0.4-0.3-1.1-0.5-1.9-0.5c-0.8,0-1.5,0.2-2,0.5c-0.6,0.3-1,0.8-1.3,1.3s-0.4,1.2-0.4,1.9v8c0,0.5-0.2,1-0.5,1.4
			c-0.4,0.4-0.8,0.5-1.3,0.5c-0.5,0-1-0.2-1.3-0.5s-0.5-0.8-0.5-1.4v-8c0-0.7-0.1-1.3-0.2-1.9c-0.2-0.6-0.5-1-0.9-1.3
			c-0.4-0.3-1.1-0.5-1.9-0.5c-0.8,0-1.5,0.2-2,0.5c-0.6,0.3-1,0.8-1.3,1.3c-0.3,0.6-0.4,1.2-0.4,1.9v8c0,0.5-0.2,1-0.5,1.4
			c-0.4,0.4-0.8,0.5-1.3,0.5c-0.5,0-1-0.2-1.3-0.5s-0.5-0.8-0.5-1.4V82.5c0-0.5,0.2-1,0.5-1.4s0.8-0.5,1.3-0.5c0.5,0,1,0.2,1.3,0.5
			c0.4,0.4,0.5,0.8,0.5,1.4v1.3l-0.5-0.1c0.2-0.4,0.4-0.7,0.8-1.1c0.3-0.4,0.7-0.8,1.2-1.1c0.5-0.4,1-0.6,1.6-0.9
			C56.3,80.4,56.9,80.3,57.6,80.3z"/>
		<path d="M87.3,80.3c1.5,0,2.8,0.4,3.9,1.1c1.2,0.7,2.1,1.8,2.8,3.1c0.7,1.3,1,2.8,1,4.5s-0.3,3.2-1,4.5c-0.7,1.3-1.6,2.3-2.7,3.1
			c-1.1,0.7-2.4,1.1-3.8,1.1c-0.8,0-1.6-0.1-2.3-0.4c-0.7-0.3-1.4-0.6-1.9-1c-0.6-0.4-1-0.8-1.3-1.3c-0.3-0.4-0.5-0.8-0.5-1.1l1-0.4
			v8.2c0,0.5-0.2,1-0.5,1.4c-0.4,0.4-0.8,0.5-1.3,0.5c-0.5,0-1-0.2-1.3-0.5c-0.4-0.4-0.5-0.8-0.5-1.4V82.5c0-0.5,0.2-1,0.5-1.4
			s0.8-0.5,1.3-0.5c0.5,0,1,0.2,1.3,0.5c0.4,0.4,0.5,0.8,0.5,1.4V84l-0.5-0.3c0-0.3,0.1-0.6,0.4-1c0.3-0.4,0.7-0.8,1.2-1.2
			c0.5-0.4,1.1-0.7,1.7-1C85.9,80.4,86.5,80.3,87.3,80.3z M86.8,83.7c-0.9,0-1.7,0.2-2.4,0.7c-0.7,0.5-1.2,1.1-1.6,1.9
			c-0.4,0.8-0.6,1.7-0.6,2.7c0,1,0.2,1.9,0.6,2.7c0.4,0.8,0.9,1.4,1.6,1.9c0.7,0.5,1.5,0.7,2.4,0.7c0.9,0,1.7-0.2,2.4-0.7
			c0.7-0.5,1.2-1.1,1.6-1.9c0.4-0.8,0.6-1.7,0.6-2.7c0-1-0.2-1.9-0.6-2.7c-0.4-0.8-0.9-1.4-1.6-1.9C88.5,83.9,87.7,83.7,86.8,83.7z"
			/>
		<path d="M103.3,95.4c0,0.5-0.2,1-0.5,1.4c-0.4,0.4-0.8,0.5-1.4,0.5c-0.5,0-1-0.2-1.3-0.5s-0.5-0.8-0.5-1.4V76.1
			c0-0.5,0.2-1,0.5-1.4s0.8-0.5,1.4-0.5c0.5,0,1,0.2,1.3,0.5s0.5,0.8,0.5,1.4V95.4z"/>
		<path d="M110.2,78.6c-0.7,0-1.2-0.1-1.5-0.3c-0.3-0.2-0.4-0.6-0.4-1.2v-0.6c0-0.6,0.2-1,0.5-1.2c0.3-0.2,0.8-0.3,1.5-0.3
			c0.7,0,1.2,0.1,1.5,0.3c0.3,0.2,0.4,0.6,0.4,1.2V77c0,0.6-0.2,1-0.5,1.2C111.4,78.4,110.9,78.6,110.2,78.6z M112.1,95.4
			c0,0.5-0.2,1-0.5,1.4s-0.8,0.5-1.3,0.5c-0.5,0-1-0.2-1.3-0.5c-0.4-0.4-0.5-0.8-0.5-1.4V82.5c0-0.5,0.2-1,0.5-1.4
			c0.4-0.4,0.8-0.5,1.3-0.5c0.5,0,1,0.2,1.3,0.5s0.5,0.8,0.5,1.4V95.4z"/>
		<path d="M130.6,80.3c0.5,0,1,0.2,1.3,0.5c0.4,0.4,0.5,0.8,0.5,1.4v13.2c0,0.5-0.2,1-0.5,1.4c-0.4,0.4-0.8,0.5-1.3,0.5
			c-0.5,0-1-0.2-1.3-0.5c-0.4-0.4-0.5-0.8-0.5-1.4v-1.5l0.7,0.3c0,0.3-0.1,0.6-0.4,1c-0.3,0.4-0.7,0.8-1.2,1.1s-1.1,0.7-1.8,1
			s-1.4,0.4-2.2,0.4c-1.4,0-2.7-0.4-3.9-1.1c-1.2-0.7-2.1-1.8-2.8-3.1c-0.7-1.3-1-2.8-1-4.5c0-1.7,0.3-3.2,1-4.5s1.6-2.3,2.7-3.1
			c1.1-0.7,2.4-1.1,3.8-1.1c0.9,0,1.7,0.1,2.5,0.4s1.4,0.6,2,1c0.6,0.4,1,0.8,1.3,1.3c0.3,0.4,0.5,0.8,0.5,1.1l-1.1,0.4v-2.3
			c0-0.5,0.2-1,0.5-1.4C129.6,80.5,130.1,80.3,130.6,80.3z M124.3,94.2c0.9,0,1.7-0.2,2.4-0.7c0.7-0.5,1.2-1.1,1.6-1.9
			c0.4-0.8,0.6-1.7,0.6-2.7c0-1-0.2-1.9-0.6-2.7c-0.4-0.8-0.9-1.4-1.6-1.9c-0.7-0.5-1.5-0.7-2.4-0.7c-0.9,0-1.7,0.2-2.4,0.7
			c-0.7,0.5-1.2,1.1-1.6,1.9c-0.4,0.8-0.6,1.7-0.6,2.7c0,1,0.2,1.9,0.6,2.7c0.4,0.8,0.9,1.4,1.6,1.9C122.6,94,123.4,94.2,124.3,94.2
			z"/>
		<path d="M146.5,80.3c1.5,0,2.7,0.3,3.5,1c0.8,0.6,1.4,1.5,1.7,2.6c0.3,1.1,0.5,2.3,0.5,3.6v8c0,0.5-0.2,1-0.5,1.4
			s-0.8,0.5-1.3,0.5c-0.5,0-1-0.2-1.3-0.5c-0.4-0.4-0.5-0.8-0.5-1.4v-8c0-0.7-0.1-1.3-0.3-1.9c-0.2-0.6-0.5-1-1-1.3
			c-0.5-0.3-1.1-0.5-2-0.5c-0.8,0-1.5,0.2-2.1,0.5c-0.6,0.3-1,0.8-1.3,1.3c-0.3,0.6-0.5,1.2-0.5,1.9v8c0,0.5-0.2,1-0.5,1.4
			c-0.4,0.4-0.8,0.5-1.3,0.5c-0.5,0-1-0.2-1.3-0.5s-0.5-0.8-0.5-1.4V82.5c0-0.5,0.2-1,0.5-1.4s0.8-0.5,1.3-0.5c0.5,0,1,0.2,1.3,0.5
			c0.4,0.4,0.5,0.8,0.5,1.4v1.3l-0.5-0.1c0.2-0.4,0.5-0.7,0.8-1.1c0.4-0.4,0.8-0.8,1.3-1.1c0.5-0.4,1-0.6,1.6-0.9
			C145.1,80.4,145.8,80.3,146.5,80.3z"/>
		<path d="M164.6,80.3c1.2,0,2.2,0.1,3.1,0.4c0.9,0.2,1.6,0.6,2.1,1c0.5,0.4,0.7,1,0.7,1.6c0,0.4-0.1,0.8-0.4,1.2
			c-0.2,0.4-0.6,0.5-1.1,0.5c-0.3,0-0.6,0-0.8-0.1c-0.2-0.1-0.4-0.2-0.6-0.4c-0.2-0.1-0.4-0.3-0.6-0.4c-0.2-0.1-0.5-0.2-1-0.3
			c-0.4-0.1-0.7-0.1-1-0.1c-1.1,0-2,0.2-2.7,0.7s-1.3,1.1-1.7,1.9s-0.6,1.7-0.6,2.7c0,1,0.2,1.9,0.6,2.7c0.4,0.8,1,1.4,1.7,1.9
			c0.7,0.5,1.5,0.7,2.5,0.7c0.5,0,1,0,1.3-0.1c0.4-0.1,0.7-0.2,0.9-0.3c0.3-0.2,0.6-0.3,0.8-0.5c0.2-0.2,0.6-0.3,1-0.3
			c0.5,0,1,0.2,1.3,0.5c0.3,0.3,0.4,0.8,0.4,1.3c0,0.5-0.3,1-0.9,1.4c-0.6,0.4-1.4,0.8-2.3,1c-0.9,0.3-2,0.4-3.1,0.4
			c-1.6,0-3.1-0.4-4.3-1.1c-1.2-0.8-2.1-1.8-2.8-3.1c-0.7-1.3-1-2.8-1-4.4c0-1.7,0.3-3.2,1-4.5s1.7-2.3,2.9-3.1
			C161.5,80.6,163,80.3,164.6,80.3z"/>
		<path d="M182.2,97.6c-1.8,0-3.3-0.4-4.6-1.1c-1.3-0.7-2.3-1.7-3-3c-0.7-1.3-1-2.7-1-4.3c0-1.9,0.4-3.5,1.1-4.8
			c0.8-1.3,1.8-2.3,3-3.1c1.2-0.7,2.5-1.1,3.9-1.1c1.1,0,2.1,0.2,3,0.7c0.9,0.4,1.8,1,2.5,1.8c0.7,0.8,1.3,1.6,1.7,2.6
			c0.4,1,0.6,2.1,0.6,3.2c0,0.5-0.2,0.9-0.6,1.2c-0.4,0.3-0.8,0.5-1.3,0.5h-12l-0.9-3.1h11.5l-0.7,0.6v-0.8c0-0.6-0.3-1.1-0.6-1.6
			c-0.4-0.5-0.9-0.9-1.4-1.1c-0.6-0.3-1.2-0.4-1.8-0.4c-0.6,0-1.2,0.1-1.8,0.3c-0.5,0.2-1,0.4-1.4,0.8c-0.4,0.4-0.7,0.9-0.9,1.6
			c-0.2,0.7-0.3,1.5-0.3,2.5c0,1.1,0.2,2.1,0.7,2.9s1.1,1.4,1.8,1.8c0.7,0.4,1.5,0.6,2.4,0.6c0.8,0,1.4-0.1,1.8-0.2
			c0.5-0.1,0.8-0.3,1.1-0.5c0.3-0.2,0.5-0.3,0.8-0.5c0.4-0.2,0.7-0.3,1.1-0.3c0.5,0,0.8,0.2,1.1,0.5c0.3,0.3,0.5,0.7,0.5,1.1
			c0,0.6-0.3,1.1-0.9,1.5c-0.5,0.5-1.3,0.9-2.3,1.2C184.3,97.5,183.3,97.6,182.2,97.6z"/>
		<path d="M211.8,80.3L205,96.2c-0.1,0.4-0.4,0.7-0.7,0.9c-0.3,0.2-0.6,0.3-1,0.3c-0.6,0-1-0.2-1.3-0.5c-0.3-0.3-0.4-0.7-0.4-1.2
			c0-0.2,0-0.4,0.1-0.6l7.8-18.7c0.2-0.4,0.4-0.7,0.8-1c0.3-0.2,0.7-0.3,1.1-0.3c0.4,0,0.7,0.1,1,0.3c0.3,0.2,0.6,0.5,0.7,0.9
			l7.7,18.3c0.1,0.3,0.2,0.5,0.2,0.8c0,0.6-0.2,1-0.5,1.3c-0.4,0.3-0.8,0.5-1.2,0.5c-0.4,0-0.7-0.1-1-0.3c-0.3-0.2-0.5-0.5-0.7-0.9
			l-6.7-15.7L211.8,80.3z M206,92.4l1.7-3.6h8.5l0.6,3.6H206z"/>
		<path d="M223.4,94.7c-0.2-0.3-0.3-0.7-0.3-1.1c0-0.5,0.3-0.9,0.8-1.2c0.3-0.2,0.7-0.3,1.1-0.3c0.4,0,0.7,0.2,1.1,0.6
			c0.6,0.6,1.2,1.1,1.9,1.4c0.7,0.3,1.5,0.5,2.5,0.5c0.3,0,0.7-0.1,1-0.1c0.4-0.1,0.7-0.2,1-0.5s0.4-0.7,0.4-1.2
			c0-0.5-0.2-0.8-0.5-1.1s-0.7-0.5-1.2-0.7c-0.5-0.2-1.1-0.4-1.7-0.5c-0.6-0.2-1.3-0.4-2-0.6c-0.7-0.2-1.3-0.5-1.9-0.9
			s-1-0.9-1.4-1.5c-0.4-0.6-0.5-1.4-0.5-2.3c0-1,0.3-1.9,0.9-2.7c0.6-0.7,1.3-1.3,2.3-1.7c0.9-0.4,1.9-0.6,2.9-0.6
			c0.6,0,1.3,0.1,2,0.2c0.7,0.2,1.4,0.4,2,0.8c0.6,0.3,1.2,0.8,1.6,1.4c0.2,0.3,0.4,0.7,0.4,1.1c0,0.4-0.2,0.8-0.6,1.2
			c-0.3,0.2-0.7,0.4-1.1,0.3s-0.8-0.2-1-0.4c-0.4-0.5-0.8-0.8-1.4-1.1c-0.6-0.3-1.3-0.4-2.1-0.4c-0.3,0-0.7,0-1,0.1s-0.7,0.2-1,0.5
			c-0.3,0.2-0.4,0.6-0.4,1.1c0,0.5,0.2,0.9,0.5,1.1c0.3,0.3,0.7,0.5,1.3,0.7c0.5,0.2,1.1,0.3,1.7,0.5c0.6,0.2,1.3,0.4,1.9,0.6
			c0.6,0.2,1.2,0.5,1.8,0.9c0.5,0.4,1,0.9,1.3,1.5c0.3,0.6,0.5,1.4,0.5,2.3c0,1.1-0.3,2-0.9,2.7c-0.6,0.8-1.4,1.3-2.3,1.7
			c-0.9,0.4-1.9,0.6-2.9,0.6c-1.2,0-2.5-0.2-3.7-0.6C225.3,96.6,224.2,95.8,223.4,94.7z"/>
		<path d="M239.5,94.7c-0.2-0.3-0.3-0.7-0.3-1.1c0-0.5,0.3-0.9,0.8-1.2c0.3-0.2,0.7-0.3,1.1-0.3c0.4,0,0.7,0.2,1.1,0.6
			c0.6,0.6,1.2,1.1,1.9,1.4c0.7,0.3,1.5,0.5,2.5,0.5c0.3,0,0.7-0.1,1-0.1c0.4-0.1,0.7-0.2,1-0.5s0.4-0.7,0.4-1.2
			c0-0.5-0.2-0.8-0.5-1.1s-0.7-0.5-1.2-0.7c-0.5-0.2-1.1-0.4-1.7-0.5c-0.6-0.2-1.3-0.4-2-0.6c-0.7-0.2-1.3-0.5-1.9-0.9
			s-1-0.9-1.4-1.5c-0.4-0.6-0.5-1.4-0.5-2.3c0-1,0.3-1.9,0.9-2.7c0.6-0.7,1.3-1.3,2.3-1.7c0.9-0.4,1.9-0.6,2.9-0.6
			c0.6,0,1.3,0.1,2,0.2c0.7,0.2,1.4,0.4,2,0.8c0.6,0.3,1.2,0.8,1.6,1.4c0.2,0.3,0.4,0.7,0.4,1.1c0,0.4-0.2,0.8-0.6,1.2
			c-0.3,0.2-0.7,0.4-1.1,0.3c-0.4,0-0.8-0.2-1-0.4c-0.4-0.5-0.8-0.8-1.4-1.1c-0.6-0.3-1.3-0.4-2.1-0.4c-0.3,0-0.7,0-1,0.1
			s-0.7,0.2-1,0.5c-0.3,0.2-0.4,0.6-0.4,1.1c0,0.5,0.2,0.9,0.5,1.1c0.3,0.3,0.7,0.5,1.3,0.7c0.5,0.2,1.1,0.3,1.7,0.5
			c0.6,0.2,1.3,0.4,1.9,0.6c0.6,0.2,1.2,0.5,1.8,0.9c0.5,0.4,1,0.9,1.3,1.5s0.5,1.4,0.5,2.3c0,1.1-0.3,2-0.9,2.7
			c-0.6,0.8-1.4,1.3-2.3,1.7c-0.9,0.4-1.9,0.6-2.9,0.6c-1.2,0-2.5-0.2-3.7-0.6C241.3,96.6,240.3,95.8,239.5,94.7z"/>
		<path d="M264.3,97.6c-1.8,0-3.3-0.4-4.6-1.1c-1.3-0.7-2.3-1.7-3-3c-0.7-1.3-1-2.7-1-4.3c0-1.9,0.4-3.5,1.1-4.8s1.8-2.3,3-3.1
			c1.2-0.7,2.5-1.1,3.9-1.1c1.1,0,2.1,0.2,3,0.7c1,0.4,1.8,1,2.5,1.8s1.3,1.6,1.7,2.6c0.4,1,0.6,2.1,0.6,3.2c0,0.5-0.2,0.9-0.6,1.2
			c-0.4,0.3-0.8,0.5-1.3,0.5h-12l-0.9-3.1h11.5l-0.7,0.6v-0.8c0-0.6-0.3-1.1-0.6-1.6c-0.4-0.5-0.9-0.9-1.4-1.1
			c-0.6-0.3-1.2-0.4-1.8-0.4c-0.6,0-1.2,0.1-1.8,0.3c-0.5,0.2-1,0.4-1.4,0.8c-0.4,0.4-0.7,0.9-0.9,1.6s-0.3,1.5-0.3,2.5
			c0,1.1,0.2,2.1,0.7,2.9s1.1,1.4,1.8,1.8c0.7,0.4,1.5,0.6,2.4,0.6c0.8,0,1.4-0.1,1.8-0.2s0.8-0.3,1.1-0.5c0.3-0.2,0.5-0.3,0.8-0.5
			c0.4-0.2,0.7-0.3,1.1-0.3c0.5,0,0.8,0.2,1.1,0.5c0.3,0.3,0.5,0.7,0.5,1.1c0,0.6-0.3,1.1-0.9,1.5c-0.5,0.5-1.3,0.9-2.3,1.2
			C266.4,97.5,265.4,97.6,264.3,97.6z"/>
		<path d="M274.9,94.7c-0.2-0.3-0.3-0.7-0.3-1.1c0-0.5,0.3-0.9,0.8-1.2c0.3-0.2,0.7-0.3,1.1-0.3s0.7,0.2,1.1,0.6
			c0.6,0.6,1.2,1.1,1.9,1.4c0.7,0.3,1.5,0.5,2.5,0.5c0.3,0,0.7-0.1,1-0.1c0.4-0.1,0.7-0.2,1-0.5c0.3-0.3,0.4-0.7,0.4-1.2
			c0-0.5-0.2-0.8-0.5-1.1c-0.3-0.3-0.7-0.5-1.2-0.7c-0.5-0.2-1.1-0.4-1.7-0.5c-0.6-0.2-1.3-0.4-2-0.6c-0.7-0.2-1.3-0.5-1.9-0.9
			s-1-0.9-1.4-1.5c-0.4-0.6-0.5-1.4-0.5-2.3c0-1,0.3-1.9,0.9-2.7c0.6-0.7,1.3-1.3,2.3-1.7s1.9-0.6,2.9-0.6c0.6,0,1.3,0.1,2,0.2
			c0.7,0.2,1.4,0.4,2,0.8c0.6,0.3,1.2,0.8,1.6,1.4c0.2,0.3,0.4,0.7,0.4,1.1c0,0.4-0.2,0.8-0.6,1.2c-0.3,0.2-0.7,0.4-1.1,0.3
			c-0.4,0-0.8-0.2-1-0.4c-0.4-0.5-0.8-0.8-1.4-1.1c-0.6-0.3-1.3-0.4-2.1-0.4c-0.3,0-0.7,0-1,0.1c-0.4,0.1-0.7,0.2-1,0.5
			c-0.3,0.2-0.4,0.6-0.4,1.1c0,0.5,0.2,0.9,0.5,1.1c0.3,0.3,0.7,0.5,1.3,0.7c0.5,0.2,1.1,0.3,1.7,0.5c0.6,0.2,1.3,0.4,1.9,0.6
			c0.6,0.2,1.2,0.5,1.8,0.9c0.5,0.4,1,0.9,1.3,1.5s0.5,1.4,0.5,2.3c0,1.1-0.3,2-0.9,2.7c-0.6,0.8-1.4,1.3-2.3,1.7
			c-0.9,0.4-1.9,0.6-2.9,0.6c-1.2,0-2.5-0.2-3.7-0.6C276.7,96.6,275.7,95.8,274.9,94.7z"/>
		<path d="M300.7,80.3c1.7,0,2.9,0.4,3.7,1.2c0.8,0.8,1.3,1.8,1.6,3.1l-0.5-0.3l0.3-0.5c0.2-0.5,0.6-1,1.2-1.5
			c0.5-0.6,1.2-1,1.9-1.4c0.7-0.4,1.6-0.6,2.5-0.6c1.5,0,2.6,0.3,3.4,1c0.8,0.6,1.3,1.5,1.6,2.6c0.3,1.1,0.4,2.3,0.4,3.6v8
			c0,0.5-0.2,1-0.5,1.4c-0.4,0.4-0.8,0.5-1.3,0.5s-1-0.2-1.3-0.5c-0.4-0.4-0.5-0.8-0.5-1.4v-8c0-0.7-0.1-1.3-0.3-1.9s-0.5-1-0.9-1.3
			c-0.4-0.3-1.1-0.5-1.9-0.5c-0.8,0-1.5,0.2-2,0.5c-0.6,0.3-1,0.8-1.3,1.3c-0.3,0.6-0.4,1.2-0.4,1.9v8c0,0.5-0.2,1-0.5,1.4
			c-0.4,0.4-0.8,0.5-1.3,0.5s-1-0.2-1.3-0.5c-0.4-0.4-0.5-0.8-0.5-1.4v-8c0-0.7-0.1-1.3-0.3-1.9s-0.5-1-0.9-1.3
			c-0.4-0.3-1.1-0.5-1.9-0.5c-0.8,0-1.5,0.2-2,0.5c-0.6,0.3-1,0.8-1.3,1.3c-0.3,0.6-0.4,1.2-0.4,1.9v8c0,0.5-0.2,1-0.5,1.4
			c-0.4,0.4-0.8,0.5-1.3,0.5s-1-0.2-1.3-0.5c-0.4-0.4-0.5-0.8-0.5-1.4V82.5c0-0.5,0.2-1,0.5-1.4c0.4-0.4,0.8-0.5,1.3-0.5
			s1,0.2,1.3,0.5c0.4,0.4,0.5,0.8,0.5,1.4v1.3l-0.5-0.1c0.2-0.4,0.4-0.7,0.8-1.1c0.3-0.4,0.7-0.8,1.2-1.1c0.5-0.4,1-0.6,1.6-0.9
			C299.4,80.4,300,80.3,300.7,80.3z"/>
		<path d="M329.6,97.6c-1.8,0-3.3-0.4-4.6-1.1c-1.3-0.7-2.3-1.7-3-3c-0.7-1.3-1-2.7-1-4.3c0-1.9,0.4-3.5,1.1-4.8s1.8-2.3,3-3.1
			c1.2-0.7,2.5-1.1,3.9-1.1c1.1,0,2.1,0.2,3,0.7c1,0.4,1.8,1,2.5,1.8s1.3,1.6,1.7,2.6c0.4,1,0.6,2.1,0.6,3.2c0,0.5-0.2,0.9-0.6,1.2
			c-0.4,0.3-0.8,0.5-1.3,0.5h-12l-0.9-3.1h11.5l-0.7,0.6v-0.8c0-0.6-0.3-1.1-0.6-1.6c-0.4-0.5-0.9-0.9-1.4-1.1
			c-0.6-0.3-1.2-0.4-1.8-0.4c-0.6,0-1.2,0.1-1.8,0.3c-0.5,0.2-1,0.4-1.4,0.8c-0.4,0.4-0.7,0.9-0.9,1.6s-0.3,1.5-0.3,2.5
			c0,1.1,0.2,2.1,0.7,2.9s1.1,1.4,1.8,1.8c0.7,0.4,1.5,0.6,2.4,0.6c0.8,0,1.4-0.1,1.8-0.2s0.8-0.3,1.1-0.5c0.3-0.2,0.5-0.3,0.8-0.5
			c0.4-0.2,0.7-0.3,1.1-0.3c0.5,0,0.8,0.2,1.1,0.5c0.3,0.3,0.5,0.7,0.5,1.1c0,0.6-0.3,1.1-0.9,1.5c-0.5,0.5-1.3,0.9-2.3,1.2
			C331.6,97.5,330.6,97.6,329.6,97.6z"/>
		<path d="M350.1,80.3c1.5,0,2.7,0.3,3.5,1c0.8,0.6,1.4,1.5,1.7,2.6c0.3,1.1,0.5,2.3,0.5,3.6v8c0,0.5-0.2,1-0.5,1.4
			s-0.8,0.5-1.3,0.5c-0.5,0-1-0.2-1.3-0.5s-0.5-0.8-0.5-1.4v-8c0-0.7-0.1-1.3-0.3-1.9c-0.2-0.6-0.5-1-1-1.3c-0.5-0.3-1.1-0.5-2-0.5
			c-0.8,0-1.5,0.2-2.1,0.5c-0.6,0.3-1,0.8-1.3,1.3s-0.5,1.2-0.5,1.9v8c0,0.5-0.2,1-0.5,1.4c-0.4,0.4-0.8,0.5-1.3,0.5s-1-0.2-1.3-0.5
			c-0.4-0.4-0.5-0.8-0.5-1.4V82.5c0-0.5,0.2-1,0.5-1.4c0.4-0.4,0.8-0.5,1.3-0.5s1,0.2,1.3,0.5c0.4,0.4,0.5,0.8,0.5,1.4v1.3l-0.5-0.1
			c0.2-0.4,0.5-0.7,0.8-1.1c0.4-0.4,0.8-0.8,1.3-1.1c0.5-0.4,1-0.6,1.6-0.9C348.7,80.4,349.3,80.3,350.1,80.3z"/>
		<path d="M360.9,80.9h7.4c0.5,0,0.9,0.2,1.3,0.5c0.3,0.3,0.5,0.8,0.5,1.3c0,0.5-0.2,0.9-0.5,1.2c-0.3,0.3-0.8,0.5-1.3,0.5h-7.4
			c-0.5,0-0.9-0.2-1.3-0.5c-0.3-0.3-0.5-0.8-0.5-1.3c0-0.5,0.2-0.9,0.5-1.2C360,81.1,360.4,80.9,360.9,80.9z M364.2,77
			c0.5,0,1,0.2,1.3,0.5c0.3,0.4,0.5,0.8,0.5,1.4v13.9c0,0.3,0.1,0.5,0.2,0.7c0.1,0.2,0.3,0.3,0.5,0.4c0.2,0.1,0.4,0.1,0.6,0.1
			c0.2,0,0.5,0,0.7-0.1c0.2-0.1,0.4-0.1,0.7-0.1c0.3,0,0.6,0.1,0.8,0.4c0.2,0.3,0.4,0.6,0.4,1.1c0,0.6-0.3,1.1-1,1.4
			c-0.6,0.4-1.3,0.6-2.1,0.6c-0.4,0-0.9,0-1.5-0.1s-1-0.3-1.5-0.5c-0.5-0.3-0.9-0.7-1.2-1.3c-0.3-0.6-0.5-1.4-0.5-2.4V78.9
			c0-0.5,0.2-1,0.5-1.4C363.2,77.2,363.7,77,364.2,77z"/>
		<path d="M385,79c-0.5,0-1-0.2-1.4-0.5c-0.4-0.3-0.5-0.8-0.5-1.3s0.2-1,0.5-1.3c0.4-0.3,0.8-0.5,1.4-0.5h13.9c0.5,0,1,0.2,1.4,0.5
			c0.4,0.3,0.5,0.8,0.5,1.3s-0.2,1-0.5,1.3c-0.4,0.3-0.8,0.5-1.4,0.5H385z M391.9,97.3c-0.6,0-1.1-0.2-1.4-0.5s-0.6-0.8-0.6-1.4
			V77.3h4.1v18.2c0,0.5-0.2,1-0.6,1.4C393,97.2,392.5,97.3,391.9,97.3z"/>
		<path d="M420.9,89c0,1.7-0.4,3.2-1.1,4.5c-0.8,1.3-1.8,2.3-3.1,3.1c-1.3,0.7-2.7,1.1-4.3,1.1c-1.6,0-3-0.4-4.3-1.1
			s-2.3-1.7-3.1-3.1c-0.8-1.3-1.1-2.8-1.1-4.5s0.4-3.2,1.1-4.5s1.8-2.3,3.1-3.1c1.3-0.7,2.7-1.1,4.3-1.1c1.6,0,3,0.4,4.3,1.1
			c1.3,0.7,2.3,1.8,3.1,3.1S420.9,87.3,420.9,89z M417.2,89c0-1.1-0.2-2-0.6-2.8c-0.4-0.8-1-1.4-1.7-1.8c-0.7-0.4-1.5-0.7-2.4-0.7
			c-0.9,0-1.7,0.2-2.4,0.7c-0.7,0.4-1.3,1-1.7,1.8c-0.4,0.8-0.6,1.7-0.6,2.8c0,1,0.2,2,0.6,2.7c0.4,0.8,1,1.4,1.7,1.8
			c0.7,0.4,1.5,0.7,2.4,0.7c0.9,0,1.7-0.2,2.4-0.7s1.3-1,1.7-1.8C417,90.9,417.2,90,417.2,89z"/>
		<path d="M441.4,89c0,1.7-0.4,3.2-1.1,4.5c-0.8,1.3-1.8,2.3-3.1,3.1c-1.3,0.7-2.7,1.1-4.3,1.1c-1.6,0-3-0.4-4.3-1.1
			s-2.3-1.7-3.1-3.1c-0.8-1.3-1.1-2.8-1.1-4.5s0.4-3.2,1.1-4.5s1.8-2.3,3.1-3.1c1.3-0.7,2.7-1.1,4.3-1.1c1.6,0,3,0.4,4.3,1.1
			c1.3,0.7,2.3,1.8,3.1,3.1S441.4,87.3,441.4,89z M437.6,89c0-1.1-0.2-2-0.6-2.8c-0.4-0.8-1-1.4-1.7-1.8c-0.7-0.4-1.5-0.7-2.4-0.7
			c-0.9,0-1.7,0.2-2.4,0.7c-0.7,0.4-1.3,1-1.7,1.8c-0.4,0.8-0.6,1.7-0.6,2.8c0,1,0.2,2,0.6,2.7c0.4,0.8,1,1.4,1.7,1.8
			c0.7,0.4,1.5,0.7,2.4,0.7c0.9,0,1.7-0.2,2.4-0.7s1.3-1,1.7-1.8C437.4,90.9,437.6,90,437.6,89z"/>
		<path d="M449.7,95.4c0,0.5-0.2,1-0.5,1.4s-0.8,0.5-1.4,0.5c-0.5,0-1-0.2-1.3-0.5s-0.5-0.8-0.5-1.4V76.1c0-0.5,0.2-1,0.5-1.4
			s0.8-0.5,1.4-0.5c0.5,0,1,0.2,1.3,0.5c0.3,0.4,0.5,0.8,0.5,1.4V95.4z"/>
		<path d="M457.2,97.3c-0.5,0-1-0.2-1.3-0.5s-0.5-0.8-0.5-1.4V76.1c0-0.5,0.2-1,0.5-1.4s0.8-0.5,1.3-0.5c0.5,0,1,0.2,1.3,0.5
			c0.4,0.4,0.5,0.8,0.5,1.4v19.3c0,0.5-0.2,1-0.5,1.4C458.2,97.2,457.8,97.3,457.2,97.3z M467.2,80.6c0.5,0,0.9,0.2,1.3,0.6
			c0.4,0.4,0.5,0.8,0.5,1.2c0,0.5-0.3,1-0.8,1.4l-9.4,8.7l-0.2-4.3l7.2-6.9C466.2,80.8,466.6,80.6,467.2,80.6z M467.6,97.3
			c-0.5,0-1-0.2-1.4-0.6l-5.8-6.1l2.8-2.6L469,94c0.4,0.4,0.6,0.9,0.6,1.4c0,0.5-0.2,1-0.6,1.3S468.1,97.3,467.6,97.3z"/>
		<path d="M475.4,78.6c-0.7,0-1.2-0.1-1.5-0.3c-0.3-0.2-0.4-0.6-0.4-1.2v-0.6c0-0.6,0.2-1,0.5-1.2c0.3-0.2,0.8-0.3,1.5-0.3
			c0.7,0,1.2,0.1,1.5,0.3c0.3,0.2,0.4,0.6,0.4,1.2V77c0,0.6-0.2,1-0.5,1.2C476.6,78.4,476.1,78.6,475.4,78.6z M477.3,95.4
			c0,0.5-0.2,1-0.5,1.4c-0.4,0.4-0.8,0.5-1.3,0.5c-0.5,0-1-0.2-1.3-0.5s-0.5-0.8-0.5-1.4V82.5c0-0.5,0.2-1,0.5-1.4s0.8-0.5,1.3-0.5
			c0.5,0,1,0.2,1.3,0.5c0.4,0.4,0.5,0.8,0.5,1.4V95.4z"/>
		<path d="M482.3,80.9h7.4c0.5,0,0.9,0.2,1.3,0.5c0.3,0.3,0.5,0.8,0.5,1.3c0,0.5-0.2,0.9-0.5,1.2c-0.3,0.3-0.8,0.5-1.3,0.5h-7.4
			c-0.5,0-0.9-0.2-1.3-0.5c-0.3-0.3-0.5-0.8-0.5-1.3c0-0.5,0.2-0.9,0.5-1.2C481.4,81.1,481.8,80.9,482.3,80.9z M485.6,77
			c0.5,0,1,0.2,1.3,0.5c0.3,0.4,0.5,0.8,0.5,1.4v13.9c0,0.3,0.1,0.5,0.2,0.7c0.1,0.2,0.3,0.3,0.5,0.4c0.2,0.1,0.4,0.1,0.6,0.1
			c0.2,0,0.5,0,0.7-0.1c0.2-0.1,0.4-0.1,0.7-0.1c0.3,0,0.6,0.1,0.8,0.4c0.2,0.3,0.4,0.6,0.4,1.1c0,0.6-0.3,1.1-1,1.4
			c-0.6,0.4-1.3,0.6-2.1,0.6c-0.4,0-0.9,0-1.5-0.1s-1-0.3-1.5-0.5c-0.5-0.3-0.9-0.7-1.2-1.3c-0.3-0.6-0.5-1.4-0.5-2.4V78.9
			c0-0.5,0.2-1,0.5-1.4C484.6,77.2,485.1,77,485.6,77z"/>
	</g>
</g>
</svg>
